<?xml version="1.0" standalone="no"?>
<!DOCTYPE svg PUBLIC "-//W3C//DTD SVG 20010904//EN"
 "http://www.w3.org/TR/2001/REC-SVG-20010904/DTD/svg10.dtd">
<svg version="1.0" xmlns="http://www.w3.org/2000/svg"
 width="955.000000pt" height="955.000000pt" viewBox="0 0 955.000000 955.000000"
 preserveAspectRatio="xMidYMid meet">
<metadata>
Created by potrace 1.11, written by Peter Selinger 2001-2013
</metadata>
<g transform="translate(0.000000,955.000000) scale(0.100000,-0.100000)"
fill="#000000" stroke="none">
<path d="M4265 8323 c-27 -1 -131 -7 -230 -13 -1141 -68 -2257 -336 -2991
-720 -587 -306 -942 -671 -1028 -1057 -25 -112 -21 -279 8 -396 156 -613 988
-1158 2261 -1482 1113 -283 2471 -363 3745 -220 1227 137 2292 484 2915 948
138 102 299 257 382 367 78 103 166 277 195 385 17 63 21 109 21 215 0 161
-19 245 -88 388 -67 140 -136 234 -275 372 -191 191 -404 339 -711 495 -787
399 -1879 649 -3124 715 -168 9 -949 11 -1080 3z m411 -385 c72 -66 169 -193
208 -272 110 -218 82 -418 -93 -673 -203 -296 -505 -608 -749 -772 -218 -146
-419 -215 -774 -266 -147 -21 -360 -31 -384 -17 -27 15 -16 17 156 37 295 33
557 89 715 152 115 45 247 123 355 209 117 93 338 316 448 452 238 294 322
457 322 629 0 139 -47 249 -186 432 -46 61 -84 116 -84 121 0 20 21 9 66 -32z
m882 -47 c70 -71 116 -154 142 -257 24 -94 25 -171 4 -267 -18 -83 -76 -211
-125 -278 -65 -89 -245 -283 -369 -398 -279 -257 -533 -436 -830 -585 -275
-137 -493 -202 -810 -240 -339 -41 -791 -49 -734 -13 6 3 98 11 205 17 655 35
905 89 1294 280 311 152 578 341 850 602 150 144 336 353 384 432 99 165 123
329 69 491 -25 76 -56 129 -118 205 -28 32 -50 62 -50 65 0 20 39 -4 88 -54z
m-2214 -138 c31 -26 56 -55 56 -65 0 -10 -196 -445 -435 -968 -259 -567 -435
-963 -435 -980 0 -61 6 -62 453 -68 242 -3 490 0 622 7 925 48 1240 141 1845
543 319 213 589 426 799 631 243 238 331 393 331 581 -1 99 -12 151 -52 239
-26 57 -29 70 -17 77 17 11 -1 14 279 -54 1419 -348 2136 -1016 1796 -1674
-209 -403 -811 -762 -1656 -988 -178 -48 -197 -50 -224 -31 -16 12 -13 22 38
153 68 176 86 244 86 330 -1 143 -54 209 -327 403 -89 63 -103 77 -103 101 0
36 61 91 140 128 l55 26 195 -29 c227 -34 262 -36 289 -11 11 10 39 73 61 142
48 142 50 192 10 211 -33 15 -1055 56 -1099 43 -17 -5 -127 -77 -244 -161
-282 -202 -297 -215 -297 -246 0 -14 32 -77 70 -141 73 -120 80 -144 56 -190
-32 -61 -184 -183 -312 -249 -224 -116 -428 -141 -1201 -150 -620 -7 -1054 11
-1532 63 -79 8 -156 12 -171 9 -41 -9 -62 -39 -116 -158 -57 -128 -62 -131
-166 -92 -620 233 -1028 528 -1188 858 -51 106 -70 189 -70 307 0 220 96 409
315 618 360 343 999 618 1845 793 102 21 199 38 216 38 24 1 46 -11 88 -46z
m333 -310 c163 -174 205 -284 169 -451 -51 -240 -341 -652 -544 -771 -63 -37
-226 -101 -258 -101 -8 0 -14 8 -14 18 0 15 546 1321 565 1352 12 19 28 10 82
-47z"/>
<path d="M230 2410 l0 -1190 795 0 795 0 0 225 0 225 -480 0 -480 0 0 965 0
965 -315 0 -315 0 0 -1190z"/>
<path d="M2752 3573 c-5 -16 -199 -548 -431 -1185 -231 -636 -421 -1159 -421
-1162 0 -3 139 -6 308 -6 l308 0 79 220 80 220 524 -2 524 -3 37 -100 c20 -55
56 -153 79 -217 l43 -118 310 0 c177 0 308 4 306 9 -1 5 -196 540 -433 1190
l-429 1181 -437 0 -437 0 -10 -27z m629 -976 l176 -482 -355 -3 c-195 -1 -356
-1 -358 1 -2 1 77 221 174 489 97 268 179 484 182 481 3 -2 84 -221 181 -486z"/>
<path d="M4600 2410 l0 -1190 674 0 c724 0 761 2 911 53 340 116 587 378 690
732 82 283 71 635 -30 900 -123 327 -390 569 -730 662 l-100 28 -707 3 -708 3
0 -1191z m1224 720 c113 -29 190 -73 276 -160 91 -90 140 -178 177 -318 22
-83 26 -118 26 -242 0 -124 -4 -159 -25 -241 -38 -143 -87 -230 -177 -320 -56
-55 -96 -86 -151 -112 -127 -62 -162 -67 -462 -67 l-268 0 0 740 0 740 263 0
c230 0 274 -3 341 -20z"/>
<path d="M7145 2419 c-236 -649 -431 -1185 -433 -1190 -2 -5 123 -9 306 -9
l310 0 43 118 c23 64 59 162 79 217 l37 100 524 3 525 2 79 -220 80 -220 309
0 c289 0 308 1 303 18 -2 9 -192 532 -422 1162 -229 630 -422 1157 -427 1173
l-10 27 -436 0 -437 0 -430 -1181z m1053 166 c88 -242 163 -448 167 -457 7
-17 -14 -18 -353 -18 l-359 0 173 478 c96 262 177 484 180 492 4 10 10 4 19
-20 7 -19 85 -233 173 -475z"/>
</g>
</svg>
